<svg viewBox="0 0 64 64"
  xmlns="http://www.w3.org/2000/svg">
  <defs>
    <style>.cls-1{fill:#d2ddff;}.cls-2{fill:#fff;}.cls-10,.cls-11,.cls-2,.cls-3,.cls-8,.cls-9{stroke:#4c241d;stroke-linecap:round;stroke-linejoin:round;stroke-width:2px;}.cls-3{fill:none;}.cls-11,.cls-4{fill:#e66353;}.cls-5,.cls-9{fill:#ffce56;}.cls-10,.cls-6{fill:#a9ba5a;}.cls-7{fill:#4c241d;}.cls-8{fill:#bf7e68;}</style>
  </defs>
  <g id="negative-browser">
    <circle class="cls-1" cx="31" cy="41" r="19"/>
    <rect class="cls-2" height="41" rx="2" width="52" x="6" y="8"/>
    <line class="cls-3" x1="53.77" x2="50.23" y1="55.73" y2="59.28"/>
    <line class="cls-3" x1="50.23" x2="53.77" y1="55.73" y2="59.28"/>
    <circle class="cls-4" cx="9.5" cy="11.5" r="1.5"/>
    <circle class="cls-5" cx="13.5" cy="11.5" r="1.5"/>
    <circle class="cls-6" cx="17.5" cy="11.5" r="1.5"/>
    <line class="cls-3" x1="58" x2="28" y1="13" y2="13"/>
    <circle class="cls-3" cx="19.5" cy="56.5" r="2.5"/>
    <path class="cls-7" d="M36.63,53.5a1.13,1.13,0,1,1-1.13-1.13A1.12,1.12,0,0,1,36.63,53.5Z"/>
    <line class="cls-3" x1="45" x2="51" y1="18" y2="18"/>
    <line class="cls-3" x1="45" x2="49" y1="21" y2="21"/>
    <line class="cls-3" x1="45" x2="53" y1="24" y2="24"/>
    <circle class="cls-8" cx="44" cy="42" r="2"/>
    <circle class="cls-9" cx="51" cy="42" r="2"/>
    <line class="cls-3" x1="11" x2="19" y1="18" y2="18"/>
    <line class="cls-3" x1="11" x2="17" y1="21" y2="21"/>
    <line class="cls-3" x1="20" x2="27" y1="21" y2="21"/>
    <line class="cls-3" x1="11" x2="16" y1="24" y2="24"/>
    <rect class="cls-10" height="3" width="6" x="11" y="42"/>
    <polygon class="cls-11" points="37.33 27 34.5 24.17 29.75 28.92 25 24.17 22.17 27 26.92 31.75 22.17 36.5 25 39.33 29.75 34.58 34.5 39.33 37.33 36.5 32.58 31.75 37.33 27"/>
  </g>
</svg>